<?xml version="1.0" standalone="no"?>
<!DOCTYPE svg PUBLIC "-//W3C//DTD SVG 20010904//EN"
 "http://www.w3.org/TR/2001/REC-SVG-20010904/DTD/svg10.dtd">
<svg version="1.0" xmlns="http://www.w3.org/2000/svg"
 width="31.000000pt" height="32.000000pt" viewBox="0 0 31.000000 32.000000"
 preserveAspectRatio="xMidYMid meet">

<g transform="translate(0.000000,32.000000) scale(0.100000,-0.100000)"
fill="#000000" stroke="none">
<path d="M0 190 c0 -75 4 -131 10 -135 6 -3 10 -11 10 -16 0 -6 -4 -7 -10 -4
-5 3 -10 -3 -10 -14 0 -18 6 -21 39 -21 31 0 40 4 44 22 4 12 2 27 -3 33 -6 7
-6 16 -2 20 4 5 2 5 -5 2 -7 -4 -16 4 -22 20 l-11 28 5 -27 c4 -19 1 -26 -10
-24 -8 1 -18 6 -22 11 -4 4 -2 5 5 1 8 -5 12 -1 12 11 0 11 6 25 13 32 6 6 12
15 13 19 1 9 20 49 38 80 13 23 14 23 19 3 3 -12 1 -18 -4 -15 -5 3 -9 2 -8
-3 1 -4 1 -17 -1 -28 l-1 -20 -8 20 c-7 17 -9 15 -16 -15 -5 -19 -8 -39 -7
-43 2 -5 -3 -5 -9 -2 -8 6 -8 2 0 -14 14 -25 23 -28 14 -4 -4 11 -3 14 6 9 7
-5 10 -2 9 6 -2 7 2 12 7 11 6 -1 11 12 11 28 1 17 9 38 18 48 9 10 15 33 15
52 l-2 34 -6 -40 c-6 -37 -7 -38 -12 -13 -7 32 13 67 37 64 11 -2 18 -14 19
-35 3 -34 -9 -31 -18 4 -3 11 -4 3 -3 -17 3 -27 -2 -42 -15 -54 -11 -9 -19
-22 -19 -28 0 -6 5 -3 11 7 8 14 14 16 25 6 12 -9 12 -15 2 -28 -12 -14 -11
-15 6 -1 18 14 18 13 12 -10 -6 -19 -5 -21 3 -10 10 13 15 8 12 -12 0 -5 2 -7
7 -7 21 4 28 -3 27 -24 -2 -12 -7 -21 -12 -20 -5 1 -10 -10 -11 -25 -3 -32 -9
-39 -42 -45 -14 -2 14 -5 63 -6 67 -1 87 2 87 12 0 15 -40 56 -40 41 0 -5 -9
2 -20 16 -25 32 -26 52 -1 23 15 -18 20 -20 25 -8 3 8 0 14 -6 12 -7 -1 -12 9
-12 23 -1 16 -6 24 -15 22 -9 -2 -11 3 -7 13 3 10 2 14 -5 10 -6 -4 -9 0 -7
11 2 10 -3 19 -9 20 -25 3 -25 4 -13 20 11 12 11 15 1 12 -8 -2 -14 9 -16 27
l-4 30 17 -30 c9 -16 17 -32 17 -35 0 -3 13 -24 28 -47 15 -24 27 -47 27 -52
0 -5 7 -14 15 -21 8 -7 15 -18 15 -24 0 -6 -5 -4 -10 4 -5 8 -10 10 -10 4 0
-6 6 -17 14 -23 12 -10 14 9 15 123 l2 135 -156 0 -155 0 0 -129z m183 14 c-5
-13 8 -19 30 -15 5 1 6 -3 2 -9 -8 -13 14 -52 26 -45 5 4 9 -1 9 -10 0 -14 -2
-14 -22 -1 -34 23 -80 84 -68 91 6 4 7 12 3 18 -4 7 -1 7 9 -1 9 -8 14 -20 11
-28z m-89 -43 c3 -5 -1 -14 -8 -20 -12 -10 -13 -8 -9 8 6 23 9 25 17 12z m155
-104 c14 -18 13 -18 -38 -8 -2 1 2 8 9 16 7 9 13 14 14 13 1 -2 8 -11 15 -21z
m-209 -10 c0 -11 -1 -18 -3 -16 -1 2 -8 11 -15 20 -9 13 -9 16 3 16 8 0 15 -9
15 -20z m29 10 c8 -10 7 -14 -4 -14 -8 0 -15 6 -15 14 0 7 2 13 4 13 2 0 9 -6
15 -13z m216 -17 c3 -5 1 -10 -4 -10 -6 0 -11 5 -11 10 0 6 2 10 4 10 3 0 8
-4 11 -10z"/>
<path d="M90 71 c0 -6 4 -13 10 -16 6 -3 7 1 4 9 -7 18 -14 21 -14 7z"/>
</g>
</svg>
